<svg width="13" height="13" viewBox="0 0 13 13" fill="none" xmlns="http://www.w3.org/2000/svg">
<path d="M6.19393 1.63242L6.5 1.99618L6.80607 1.63242C7.44176 0.876916 8.41692 0.4 9.425 0.4C11.2016 0.4 12.6 1.80836 12.6 3.61814C12.6 4.73163 12.1088 5.77243 11.1655 6.93962C10.2174 8.11268 8.85376 9.36499 7.17204 10.9084L7.17146 10.9089L6.49897 11.5285L5.82828 10.9152L5.82742 10.9145L5.82391 10.9112C4.1441 9.3663 2.78194 8.11351 1.83462 6.94055C0.891231 5.77245 0.4 4.73163 0.4 3.61814C0.4 1.80836 1.79842 0.4 3.575 0.4C4.58308 0.4 5.55824 0.876916 6.19393 1.63242ZM6.78453 10.5764L6.84256 10.5177C8.37943 9.10929 9.6825 7.91465 10.5982 6.83178C11.5118 5.75136 12.1 4.71469 12.1 3.61814C12.1 2.08608 10.9504 0.915687 9.425 0.915687C8.36392 0.915687 7.32507 1.54203 6.8512 2.4682H6.15381C5.67542 1.54303 4.63729 0.915687 3.575 0.915687C2.04958 0.915687 0.9 2.08608 0.9 3.61814C0.9 4.71469 1.4882 5.75136 2.40181 6.83178C3.3175 7.91465 4.62057 9.10929 6.15744 10.5177L6.21547 10.5764L6.5 10.8644L6.78453 10.5764Z" stroke="#98CA3F" stroke-width="0.8"/>
</svg>

