<svg width="20" height="19" viewBox="0 0 20 19" fill="none" xmlns="http://www.w3.org/2000/svg">
<path d="M17.859 2.90458H7.46798C7.30215 2.89465 7.14361 2.82033 7.02525 2.6928C6.90461 2.56281 6.83551 2.3877 6.83551 2.20344C6.83551 2.01918 6.90461 1.84407 7.02525 1.71407C7.14361 1.58655 7.30215 1.51223 7.46798 1.50229H17.859H17.8591C18.1217 1.50221 18.3814 1.56375 18.6184 1.68278C18.8555 1.80183 19.0642 1.9755 19.228 2.19145L19.5397 1.95507L19.228 2.19145C19.3918 2.40743 19.5062 2.65983 19.5617 2.92963C19.6173 3.19945 19.6123 3.47884 19.5473 3.74632L19.5472 3.74644L17.9422 10.3556L17.9422 10.3557C17.8469 10.7484 17.6273 11.0947 17.321 11.341C17.0148 11.5871 16.6392 11.7195 16.254 11.7195H16.2539H7.89266H7.89261C7.01261 11.7196 6.15736 11.4108 5.46824 10.8418C4.77889 10.2725 4.29676 9.4765 4.10414 8.58386L4.10413 8.58381L2.70836 2.11902L2.64022 1.80344H2.31737H1.04368C0.875382 1.79631 0.713673 1.72286 0.59288 1.59444C0.470348 1.46416 0.4 1.28764 0.4 1.10172C0.4 0.915797 0.470348 0.739273 0.59288 0.608999C0.713673 0.480573 0.875382 0.407126 1.04368 0.4H2.31737C3.12529 0.4 3.83674 0.978268 4.01673 1.81021L5.41134 8.27477L5.41139 8.275C5.66771 9.45973 6.69263 10.316 7.89266 10.316H16.2539H16.5685L16.6426 10.0104L18.2477 3.39895L18.3677 2.90458H17.859ZM7.75687 17.9333C7.27636 17.9333 6.81311 17.7369 6.46969 17.3834C6.12589 17.0295 5.93076 16.5471 5.93076 16.0417C5.93076 15.5363 6.12589 15.0538 6.46969 14.6999C6.81311 14.3464 7.27636 14.15 7.75687 14.15C8.23738 14.15 8.70064 14.3464 9.04405 14.6999C9.38785 15.0538 9.58298 15.5363 9.58298 16.0417C9.58298 16.5471 9.38785 17.0295 9.04405 17.3834C8.70064 17.7369 8.23738 17.9333 7.75687 17.9333ZM15.5483 17.9333C15.0678 17.9333 14.6045 17.7369 14.2611 17.3834C13.9173 17.0295 13.7221 16.5471 13.7221 16.0417C13.7221 15.5363 13.9173 15.0538 14.2611 14.6999C14.6045 14.3464 15.0678 14.15 15.5483 14.15C16.0288 14.15 16.492 14.3464 16.8354 14.6999C17.1792 15.0538 17.3744 15.5363 17.3744 16.0417C17.3744 16.5471 17.1792 17.0295 16.8354 17.3834C16.492 17.7369 16.0288 17.9333 15.5483 17.9333Z" fill="#BECDE3" stroke="#BECDE3" stroke-width="0.8"/>
</svg>
