<svg width="20" height="19" viewBox="0 0 20 19" fill="none" xmlns="http://www.w3.org/2000/svg">
<path d="M9.69546 2.34934L10 2.70696L10.3045 2.34934C11.3211 1.15557 12.8811 0.4 14.5 0.4C17.3591 0.4 19.6 2.64091 19.6 5.5C19.6 7.25861 18.8127 8.88559 17.3466 10.678C15.876 12.476 13.7644 14.3914 11.1813 16.7337L11.1807 16.7342L9.99898 17.81L8.81901 16.744L8.81815 16.7432L8.80077 16.7274C6.22593 14.3875 4.12075 12.4745 2.65346 10.6794C1.1873 8.88561 0.4 7.25861 0.4 5.5C0.4 2.64091 2.64091 0.4 5.5 0.4C7.11889 0.4 8.6789 1.15557 9.69546 2.34934ZM3.8611 10.2526C5.25994 11.8871 7.2544 13.6941 9.62417 15.8399L9.71716 15.9328L10 16.2157L10.2828 15.9328L10.3758 15.8399C12.7456 13.6941 14.7401 11.8871 16.1389 10.2526C17.5353 8.62092 18.4 7.09264 18.4 5.5C18.4 3.27909 16.7209 1.6 14.5 1.6C12.9029 1.6 11.3382 2.56157 10.676 3.96H9.33243C8.66229 2.5627 7.09839 1.6 5.5 1.6C3.27909 1.6 1.6 3.27909 1.6 5.5C1.6 7.09264 2.46469 8.62092 3.8611 10.2526Z" fill="#BECDE3" stroke="#BECDE3" stroke-width="0.8"/>
</svg>
