<svg width="18" height="20" viewBox="0 0 18 20" fill="none" xmlns="http://www.w3.org/2000/svg">
<path d="M15.556 7.68946L15.1878 8.0531C13.7226 9.50045 12.3229 10.8854 10.974 12.2205C11.3004 12.5585 11.6195 12.8887 11.9374 13.2176C12.1195 13.4061 12.3012 13.5941 12.4837 13.7829C13.7857 12.5164 15.0843 11.246 16.3793 9.97164L16.385 9.96602L16.3909 9.96058C16.6253 9.74433 16.8396 9.50792 17.0313 9.2542C17.3992 8.71348 17.5584 8.06103 17.4808 7.41504C17.4029 6.76547 17.0905 6.16431 16.5995 5.72231L16.5929 5.71636L16.5929 5.7163C16.0037 5.1666 15.4273 4.59063 14.8582 4.0219C14.5687 3.73266 14.2812 3.4453 13.9947 3.16421L15.556 7.68946ZM15.556 7.68946L15.1799 7.33401C15.0028 7.16659 14.8336 7.00776 14.67 6.8542C14.3222 6.52772 13.9998 6.2251 13.6808 5.91466M15.556 7.68946L13.6808 5.91466M13.6808 5.91466C13.0984 5.34552 12.5201 4.7738 11.9407 4.20098C11.6262 3.89001 11.3113 3.57871 10.9953 3.26732L10.9953 3.26731C10.8927 3.1662 10.7878 3.07142 10.6881 2.98257C10.6223 2.91576 10.5444 2.86208 10.4588 2.82425C10.3621 2.78154 10.2575 2.75993 10.152 2.76069C10.0465 2.76145 9.94217 2.78456 9.84609 2.82867C9.76033 2.86803 9.68273 2.92338 9.61755 2.99188C9.55545 3.0496 9.48983 3.11075 9.42373 3.17479L9.42371 3.17478L9.42069 3.17776C7.39901 5.17 5.37779 7.16224 3.35701 9.15448L3.35652 9.15496C3.34575 9.16561 3.33252 9.17839 3.31763 9.19277C3.26755 9.24115 3.19859 9.30775 3.14062 9.37304C3.07712 9.44354 3.00597 9.52764 2.95062 9.62042C2.8918 9.71903 2.8339 9.85514 2.83626 10.0223C2.83863 10.1898 2.90056 10.3251 2.96402 10.4239C3.02425 10.5177 3.10105 10.6018 3.1714 10.6734L3.17149 10.6735C3.50618 11.0141 3.84784 11.3492 4.18545 11.6802C4.2747 11.7677 4.36367 11.855 4.45215 11.9419C6.12409 13.5898 7.79602 15.2369 9.46795 16.8834L9.46911 16.8845C9.54507 16.9588 9.62906 17.0334 9.71815 17.1124C9.75467 17.1448 9.79206 17.178 9.8301 17.2122L10.1713 17.5192L10.5063 17.2054C10.5598 17.1553 10.615 17.1043 10.671 17.0526C10.7968 16.9362 10.9264 16.8164 11.0485 16.6961M13.6808 5.91466L11.0485 16.6961M11.0485 16.6961C11.0484 16.6963 11.0482 16.6964 11.048 16.6966L10.698 16.3398L11.0487 16.696C11.0486 16.696 11.0486 16.6961 11.0485 16.6961ZM12.477 15.2855C12.9983 15.7911 13.5153 16.301 14.0281 16.8154M12.477 15.2855L13.9947 3.16418C13.3292 2.51124 12.664 1.86015 11.9906 1.21774M12.477 15.2855C12.4607 15.2696 12.4444 15.2538 12.4281 15.238L12.428 15.238C12.3958 15.2067 12.3714 15.1838 12.3517 15.1665C12.3317 15.1488 12.3222 15.1418 12.3202 15.1404C12.3181 15.139 12.3318 15.149 12.3587 15.1593C12.3802 15.1675 12.4084 15.1753 12.4417 15.1787L5.56083 3.19011C4.64798 4.09498 3.73579 4.99974 2.82428 5.90439C2.62273 6.10396 2.41922 6.30179 2.21571 6.49963C1.77233 6.93065 1.32892 7.3617 0.905625 7.81077C0.321389 8.4013 -0.00396905 9.19562 3.65518e-05 10.0216C0.00404215 10.8477 0.337089 11.6389 0.927025 12.2238C1.61151 12.9438 2.32009 13.6428 3.02738 14.3405C3.15761 14.4689 3.28781 14.5974 3.4178 14.7259C4.6336 15.9325 5.85452 17.133 7.08057 18.3274C7.46243 18.7003 7.86134 19.0583 8.27396 19.3974C9.38008 20.3049 11.3312 20.1349 12.2531 19.2384C12.4796 19.0183 12.7065 18.7986 12.9335 18.5788C13.4332 18.095 13.933 17.6111 14.4285 17.1228C14.7194 16.8375 14.7154 16.7972 14.4145 16.4947M12.477 15.2855C12.4912 15.2717 12.5054 15.2579 12.5196 15.2441L12.52 15.2437C12.5529 15.2118 12.5781 15.188 12.5986 15.1697C12.6195 15.1511 12.6301 15.1432 12.6334 15.1408C12.6369 15.1384 12.6248 15.1475 12.5998 15.1576C12.5729 15.1685 12.533 15.1795 12.4839 15.1804C12.4838 15.1804 12.4838 15.1804 12.4838 15.1804C12.4829 15.1805 12.482 15.1805 12.481 15.1805C12.4731 15.1806 12.4655 15.1804 12.458 15.18C12.4578 15.18 12.4575 15.18 12.4573 15.1799C12.4544 15.1798 12.4515 15.1796 12.4487 15.1793L12.453 15.1754L12.4533 15.1751L12.7751 14.8781C12.7754 14.8784 12.7757 14.8787 12.776 14.8789C13.3268 15.4127 13.873 15.9513 14.4145 16.4947M14.0281 16.8154C13.5505 17.2855 13.0699 17.7508 12.5877 18.2176C12.3604 18.4378 12.1326 18.6583 11.9046 18.8799L11.9045 18.88C11.551 19.2237 10.9586 19.4589 10.3049 19.4952C9.65401 19.5313 9.02353 19.3656 8.59108 19.0109M14.0281 16.8154C14.0446 16.7992 14.0611 16.7829 14.0776 16.7667L14.0784 16.7658C14.1133 16.7317 14.139 16.7057 14.1588 16.6846C14.1789 16.6631 14.187 16.6528 14.1888 16.6503C14.1908 16.6475 14.1792 16.6624 14.1673 16.6921C14.1599 16.7105 14.153 16.7332 14.1485 16.7594L14.4145 16.4947M14.0281 16.8154C14.0387 16.8261 14.0494 16.8367 14.06 16.8474C14.0966 16.8842 14.1245 16.9128 14.1465 16.9366C14.169 16.9608 14.18 16.9744 14.1848 16.9807C14.1859 16.9822 14.1863 16.9828 14.1863 16.9828C14.1861 16.9825 14.179 16.9724 14.1708 16.9538C14.1594 16.9282 14.146 16.8869 14.1438 16.8339C14.1438 16.8334 14.1438 16.8329 14.1437 16.8324C14.1437 16.8312 14.1436 16.83 14.1436 16.8287C14.1429 16.8038 14.1449 16.7807 14.1484 16.7598L14.4145 16.4947M8.59108 19.0109C8.18977 18.681 7.80159 18.3326 7.42989 17.9697L7.42948 17.9693C6.20453 16.7759 4.98471 15.5765 3.77001 14.371L3.76932 14.3703C3.63852 14.241 3.50779 14.112 3.37724 13.9833C2.66987 13.2854 1.96786 12.5929 1.28939 11.8793L1.28431 11.874L1.27908 11.8688C0.782622 11.3765 0.50339 10.7119 0.500031 10.0192C0.496672 9.32655 0.769442 8.65934 1.26107 8.16242L1.26117 8.16252L1.26946 8.15373C1.68521 7.71267 2.11547 7.29444 2.55464 6.86754C2.76003 6.66789 2.96736 6.46635 3.17608 6.25969L3.1765 6.25928C4.08794 5.3547 5.00005 4.45001 5.91282 3.54521L5.91319 3.54484C6.1535 3.30614 6.38773 3.06839 6.6198 2.83283C7.14711 2.29759 7.66328 1.77366 8.21436 1.27548L8.22 1.27038L8.22548 1.26512C8.72745 0.782814 9.39862 0.508427 10.1008 0.500191C10.8014 0.491973 11.4776 0.749333 11.9906 1.21774M8.59108 19.0109L8.27408 19.3973L8.59146 19.0112C8.59133 19.0111 8.59121 19.011 8.59108 19.0109ZM11.9906 1.21774C11.9894 1.21654 11.9881 1.21533 11.9868 1.21413L12.332 0.852344L11.9942 1.221C11.993 1.21991 11.9918 1.21883 11.9906 1.21774Z" fill="#BECDE3" stroke="#BECDE3"/>
</svg>
