<svg width="20" height="24" viewBox="0 0 20 24" fill="none" xmlns="http://www.w3.org/2000/svg">
<g clip-path="url(#clip0)">
<path d="M17.8571 1.5H2.14286C1.57454 1.5 1.02949 1.73705 0.627628 2.15901C0.225765 2.58097 0 3.15326 0 3.75L0 20.25C0 20.8467 0.225765 21.419 0.627628 21.841C1.02949 22.2629 1.57454 22.5 2.14286 22.5H8.27009V15.3605H5.45759V12H8.27009V9.43875C8.27009 6.52547 9.92188 4.91625 12.4518 4.91625C13.6634 4.91625 14.9304 5.14313 14.9304 5.14313V8.0025H13.5344C12.1589 8.0025 11.7299 8.89875 11.7299 9.81797V12H14.8004L14.3094 15.3605H11.7299V22.5H17.8571C18.4255 22.5 18.9705 22.2629 19.3724 21.841C19.7742 21.419 20 20.8467 20 20.25V3.75C20 3.15326 19.7742 2.58097 19.3724 2.15901C18.9705 1.73705 18.4255 1.5 17.8571 1.5Z" fill="#0791E6"/>
</g>
<defs>
<clipPath id="clip0">
<rect width="20" height="24" fill="white"/>
</clipPath>
</defs>
</svg>
