<svg width="24" height="24" viewBox="0 0 24 24" fill="none" xmlns="http://www.w3.org/2000/svg">
<path d="M11.9946 6.16025C15.4018 6.16025 18.15 8.76533 18.15 11.995C18.15 15.2247 15.4018 17.8298 11.9946 17.8298C8.58751 17.8298 5.8393 15.2247 5.8393 11.995C5.8393 8.76533 8.58751 6.16025 11.9946 6.16025ZM11.9946 15.7884C14.1964 15.7884 15.9964 14.0872 15.9964 11.995C15.9964 9.90283 14.2018 8.20166 11.9946 8.20166C9.78751 8.20166 7.99287 9.90283 7.99287 11.995C7.99287 14.0872 9.79286 15.7884 11.9946 15.7884ZM4.1518 5.92158C4.1518 6.67822 4.79466 7.28252 5.58751 7.28252C6.38573 7.28252 7.02322 6.67314 7.02322 5.92158C7.02322 5.17002 6.38037 4.56064 5.58751 4.56064C4.79466 4.56064 4.1518 5.17002 4.1518 5.92158ZM0.0750217 7.30283C0.166092 5.47979 0.605377 3.86494 2.0143 2.53447C3.41787 1.204 5.12144 0.787598 7.04465 0.696191C9.02679 0.589551 14.9679 0.589551 16.95 0.696191C18.8678 0.78252 20.5714 1.19893 21.9803 2.52939C23.3893 3.85986 23.8232 5.47471 23.9196 7.29775C24.0321 9.17666 24.0321 14.8083 23.9196 16.6872C23.8286 18.5103 23.3893 20.1251 21.9803 21.4556C20.5714 22.786 18.8732 23.2024 16.95 23.2938C14.9679 23.4005 9.02679 23.4005 7.04465 23.2938C5.12144 23.2075 3.41787 22.7911 2.0143 21.4556C0.610735 20.1251 0.17145 18.5103 0.0750217 16.6872C-0.0374794 14.8083 -0.0374794 9.18174 0.0750217 7.30283ZM2.63573 18.7032C3.05359 19.6985 3.86251 20.4653 4.91787 20.8665C6.49822 21.4606 10.2482 21.3235 11.9946 21.3235C13.7411 21.3235 17.4964 21.4556 19.0714 20.8665C20.1214 20.4704 20.9303 19.7036 21.3536 18.7032C21.9803 17.2052 21.8357 13.6505 21.8357 11.995C21.8357 10.3396 21.975 6.77979 21.3536 5.28682C20.9357 4.2915 20.1268 3.52471 19.0714 3.12354C17.4911 2.52939 13.7411 2.6665 11.9946 2.6665C10.2482 2.6665 6.49287 2.53447 4.91787 3.12354C3.86787 3.51963 3.05894 4.28643 2.63573 5.28682C2.00895 6.78486 2.15359 10.3396 2.15359 11.995C2.15359 13.6505 2.00895 17.2103 2.63573 18.7032Z" fill="#FF6DE0"/>
</svg>
