<svg width="22" height="21" viewBox="0 0 22 21" fill="none" xmlns="http://www.w3.org/2000/svg">
<path d="M4.92446 21H0.363393V6.97937H4.92446V21ZM2.64147 5.06683C1.18299 5.06683 0 3.91368 0 2.52146C1.04392e-08 1.85273 0.278297 1.21139 0.77367 0.738519C1.26904 0.265653 1.94091 0 2.64147 0C3.34204 0 4.0139 0.265653 4.50928 0.738519C5.00465 1.21139 5.28295 1.85273 5.28295 2.52146C5.28295 3.91368 4.09946 5.06683 2.64147 5.06683ZM21.9951 21H17.4438V14.1748C17.4438 12.5482 17.4095 10.4623 15.0725 10.4623C12.7011 10.4623 12.3377 12.2295 12.3377 14.0577V21H7.78152V6.97937H12.156V8.89192H12.2198C12.8287 7.79033 14.3162 6.6278 16.5354 6.6278C21.1514 6.6278 22 9.52943 22 13.2983V21H21.9951Z" fill="#0791E6"/>
</svg>
