<svg width="16" height="18" viewBox="0 0 16 18" fill="none" xmlns="http://www.w3.org/2000/svg">
<path d="M16.0004 7.37965C14.4281 7.38335 12.8943 6.90066 11.6158 5.99977V12.2829C11.6153 13.4466 11.254 14.5824 10.5801 15.5385C9.90616 16.4946 8.95178 17.2254 7.84455 17.6332C6.73732 18.0409 5.53002 18.1062 4.38408 17.8203C3.23814 17.5344 2.20819 16.9109 1.43194 16.0332C0.655684 15.1555 0.170138 14.0655 0.0402193 12.9088C-0.089699 11.7522 0.142204 10.584 0.704919 9.56062C1.26763 8.53721 2.13434 7.70729 3.18915 7.18185C4.24395 6.65641 5.43658 6.46048 6.60755 6.62027V9.78047C6.07171 9.61456 5.49632 9.61955 4.96353 9.79475C4.43075 9.96994 3.96783 10.3064 3.64087 10.756C3.31392 11.2056 3.13965 11.7455 3.14296 12.2984C3.14627 12.8513 3.32698 13.3891 3.65929 13.8349C3.99161 14.2807 4.45852 14.6118 4.99337 14.7808C5.52821 14.9498 6.10363 14.9481 6.63745 14.776C7.17126 14.6039 7.63619 14.2701 7.96581 13.8224C8.29544 13.3747 8.47292 12.8358 8.47291 12.2829V0H11.6158C11.6136 0.26126 11.6358 0.522164 11.6822 0.779414C11.7914 1.35368 12.0185 1.89999 12.3495 2.38491C12.6806 2.86983 13.1087 3.28317 13.6076 3.59965C14.3173 4.06163 15.1495 4.30787 16.0004 4.3077V7.37965Z" fill="white"/>
</svg>
