<svg width="24" height="20" viewBox="0 0 24 20" fill="none" xmlns="http://www.w3.org/2000/svg">
<path d="M21.533 5.11163C21.5482 5.32482 21.5482 5.53805 21.5482 5.75124C21.5482 12.2537 16.599 19.7461 7.5533 19.7461C4.76648 19.7461 2.17767 18.939 0 17.538C0.395953 17.5837 0.776625 17.5989 1.18781 17.5989C3.48727 17.5989 5.60405 16.8223 7.29441 15.4974C5.13197 15.4517 3.31978 14.0355 2.69541 12.0863C3 12.1319 3.30455 12.1624 3.62437 12.1624C4.06598 12.1624 4.50764 12.1014 4.91878 11.9949C2.66498 11.538 0.974578 9.55833 0.974578 7.16747V7.10658C1.62937 7.47207 2.39086 7.70049 3.19791 7.73091C1.87303 6.84764 1.00505 5.34005 1.00505 3.63446C1.00505 2.72077 1.24866 1.88321 1.67508 1.15224C4.09641 4.137 7.73602 6.08621 11.8172 6.29944C11.7411 5.93396 11.6954 5.55328 11.6954 5.17257C11.6954 2.46188 13.8883 0.253784 16.6141 0.253784C18.0304 0.253784 19.3095 0.847691 20.208 1.80708C21.3197 1.59389 22.3857 1.18271 23.3299 0.619269C22.9643 1.76142 22.1877 2.72082 21.1674 3.32991C22.1573 3.22336 23.1167 2.94919 23.9999 2.56852C23.33 3.5431 22.4924 4.41108 21.533 5.11163Z" fill="#2E8BCC"/>
</svg>
