<svg width="28" height="21" viewBox="0 0 28 21" fill="none" xmlns="http://www.w3.org/2000/svg">
<path d="M27.4149 3.2383C27.0929 1.96364 26.1441 0.959747 24.9394 0.619063C22.7558 0 14 0 14 0C14 0 5.2442 0 3.06058 0.619063C1.8559 0.959801 0.907111 1.96364 0.585087 3.2383C0 5.54871 0 10.3692 0 10.3692C0 10.3692 0 15.1896 0.585087 17.5C0.907111 18.7747 1.8559 19.7368 3.06058 20.0774C5.2442 20.6965 14 20.6965 14 20.6965C14 20.6965 22.7558 20.6965 24.9394 20.0774C26.1441 19.7368 27.0929 18.7747 27.4149 17.5C28 15.1896 28 10.3692 28 10.3692C28 10.3692 28 5.54871 27.4149 3.2383ZM11.1363 14.7458V5.99256L18.4545 10.3693L11.1363 14.7458Z" fill="#FF4E4E"/>
</svg>
