<svg width="93" height="29" viewBox="0 0 93 29" fill="none" xmlns="http://www.w3.org/2000/svg">
<g clip-path="url(#clip0)">
<path d="M21.8008 11.1565C20.9953 10.4054 20.2837 9.7573 19.5893 9.09054C18.2674 7.81598 16.9562 6.52895 15.6397 5.24912C15.4952 5.10867 15.3448 4.97493 15.1925 4.8412C15.1585 4.80373 15.1168 4.7738 15.07 4.75341C15.0232 4.73302 14.9725 4.72266 14.9213 4.72303C14.87 4.72339 14.8195 4.73447 14.773 4.75552C14.7265 4.77656 14.6852 4.80709 14.6519 4.84503C14.5536 4.93515 14.4553 5.02526 14.357 5.11922C11.3858 8.00803 8.41525 10.8968 5.44535 13.7857C5.34706 13.8815 5.24878 13.9697 5.15934 14.0694C4.81189 14.4495 4.80501 14.5862 5.18096 14.9639C5.79722 15.5827 6.42822 16.1872 7.0548 16.795C9.51197 19.1843 11.9691 21.5727 14.4263 23.9601C14.5693 24.0982 14.7212 24.2252 14.9345 24.4145C15.2057 24.1638 15.4672 23.9323 15.7183 23.6883C16.4422 22.9875 17.1562 22.2757 17.884 21.5792C18.2944 21.1857 18.3691 21.1843 18.7726 21.5701C19.5821 22.3441 20.3848 23.1251 21.1806 23.9131C21.6229 24.3517 21.6288 24.4102 21.2012 24.8239C20.1422 25.8535 19.0699 26.8697 18.004 27.8917C16.6491 29.1916 13.7815 29.438 12.1559 28.1222C11.5495 27.6304 10.9632 27.1113 10.402 26.5706C8.60003 24.8386 6.80564 23.0978 5.01878 21.3482C3.7902 20.1498 2.54933 18.9563 1.35809 17.7201C0.491063 16.8718 0.00158436 15.7246 -0.00430266 14.5268C-0.0101897 13.329 0.467989 12.1772 1.32664 11.3209C2.23432 10.3709 3.2049 9.47641 4.14649 8.55655C5.48614 7.24476 6.82677 5.93281 8.16839 4.6207C9.29868 3.51295 10.3926 2.36158 11.5755 1.30655C12.4488 0.478683 13.6145 0.00929171 14.8322 -0.00480027C16.0499 -0.0188922 17.2267 0.42339 18.1199 1.23082C19.1156 2.16793 20.0984 3.11702 21.0784 4.06563C22.3472 5.29417 23.5847 6.55819 24.8835 7.75366C25.7365 8.51121 26.2809 9.54331 26.4168 10.6607C26.5528 11.778 26.2711 12.9057 25.6236 13.837C25.3127 14.2447 24.9646 14.6243 24.5838 14.9711C22.6714 16.8277 20.7539 18.6786 18.831 20.5237C18.6728 20.6762 18.5082 20.8219 18.316 20.9968C17.2432 19.9011 16.2028 18.8398 15.0912 17.7038C17.2324 15.6129 19.4596 13.4381 21.8008 11.1565Z" fill="#98CA3F"/>
<path d="M35.3051 23.0012H32.386C32.3654 22.7255 32.3344 22.4911 32.3344 22.2563C32.3318 17.1149 32.3318 11.973 32.3344 6.83066C32.3344 6.69836 32.3344 6.56558 32.3383 6.43329C32.3319 6.3778 32.3386 6.3216 32.358 6.26906C32.3774 6.21652 32.4089 6.16905 32.4502 6.13033C32.4915 6.09162 32.5413 6.0627 32.5959 6.04582C32.6505 6.02895 32.7083 6.02458 32.7649 6.03304C32.8563 6.03304 32.9462 6.0292 33.0377 6.0292C35.3302 6.0292 37.6222 6.00955 39.9148 6.03735C41.152 6.01632 42.3625 6.38974 43.3623 7.1009C44.3621 7.81205 45.0966 8.82207 45.4542 9.97752C46.212 12.2898 45.8331 14.4354 44.0925 16.2521C43.5827 16.7763 42.9704 17.1956 42.2918 17.4853C41.6132 17.775 40.882 17.9292 40.1413 17.9389C38.8277 17.9959 37.5097 17.9599 36.1932 17.9652C35.3479 17.9691 35.3469 17.9691 35.3454 18.8184C35.3454 19.9209 35.3454 21.0234 35.3454 22.1288C35.3435 22.3929 35.3218 22.6522 35.3051 23.0012ZM35.3489 15.3696C35.4458 15.3948 35.5443 15.4138 35.6437 15.4266C36.9372 15.4319 38.2316 15.4453 39.5261 15.4334C40.3294 15.4539 41.113 15.1883 41.7301 14.6861C42.3471 14.1839 42.7555 13.4796 42.8786 12.705C43.2752 10.6774 41.9832 8.44315 39.3978 8.53471C38.2872 8.57449 37.1736 8.53854 36.0614 8.54382C35.8241 8.54382 35.5872 8.57545 35.3499 8.59175L35.3489 15.3696Z" fill="white"/>
<path d="M66.6429 21.1997C66.6429 21.6925 66.6645 22.1752 66.6277 22.6521C66.6052 22.7294 66.564 22.8002 66.5076 22.8586C66.4511 22.917 66.3811 22.9613 66.3033 22.9877C65.5968 23.1774 64.8464 23.1398 64.1636 22.8803C63.8953 22.7848 63.6578 22.6217 63.4751 22.4076C63.2925 22.1935 63.1712 21.936 63.1237 21.6613C63.0898 21.4945 63.0746 21.3258 63.0353 21.0516C62.8977 21.2199 62.8171 21.3138 62.7434 21.4107C60.7988 23.9813 56.5557 23.723 54.8431 21.2913C54.0506 20.2417 53.5822 18.993 53.493 17.6924C53.4038 16.3918 53.6977 15.0934 54.3399 13.9502C54.6986 13.2914 55.2005 12.7169 55.8103 12.2667C56.4201 11.8165 57.1233 11.5015 57.8708 11.3436C59.5744 10.9234 61.3602 10.9379 63.0564 11.3858C63.6058 11.5171 64.141 11.7079 64.6757 11.8905C65.3273 12.1129 65.3313 12.1225 65.3327 12.7864C65.3367 14.884 65.338 16.9812 65.3367 19.0782C65.3367 19.2996 65.3367 19.5197 65.3396 19.7406C65.3539 20.8048 65.4777 20.9548 66.6429 21.1997ZM62.7232 15.7482L62.677 15.7458C62.677 15.2157 62.6662 14.6855 62.681 14.1568C62.6958 14.0252 62.6597 13.8929 62.5798 13.7858C62.4999 13.6787 62.382 13.6046 62.249 13.5778C61.2112 13.2334 60.0968 13.1716 59.0257 13.399C58.4172 13.5048 57.8539 13.7827 57.4059 14.198C56.9579 14.6133 56.6448 15.1479 56.5056 15.7353C56.1965 16.7612 56.2396 17.8575 56.6285 18.8572C56.8666 19.5001 57.324 20.0437 57.924 20.397C58.524 20.7502 59.2302 20.8917 59.9244 20.7978C60.6186 20.7039 61.2586 20.3802 61.7373 19.8809C62.2161 19.3817 62.5044 18.7371 62.5542 18.0553C62.6731 17.2946 62.6716 16.518 62.7232 15.7482Z" fill="white"/>
<path d="M67.1633 11.3292H69.5424V9.55084C69.5424 9.39554 69.5399 9.24215 69.5424 9.08684C69.5586 8.48527 69.5876 8.45364 70.2033 8.44405C70.7021 8.4359 71.2024 8.43351 71.7012 8.44405C72.3077 8.45603 72.3401 8.48911 72.3475 9.10122C72.3558 9.80346 72.3475 10.5057 72.3475 11.2985H76.3979V13.5447H72.4236C72.3922 13.8232 72.3514 14.0111 72.3514 14.2009C72.3488 15.7236 72.3506 17.2457 72.3568 18.7671C72.3541 18.9655 72.3664 19.1639 72.3937 19.3605C72.5966 20.6816 73.4542 21.3296 74.8228 21.1667C75.4219 21.0952 76.0136 20.9572 76.6937 20.834C76.763 21.4183 76.8505 21.9791 76.8834 22.5433C76.8722 22.6234 76.8408 22.6995 76.792 22.7647C76.7432 22.83 76.6785 22.8824 76.6038 22.9172C75.0828 23.3558 73.5495 23.5998 72.0025 23.0164C71.5279 22.8572 71.0988 22.5904 70.7505 22.2379C70.4021 21.8854 70.1446 21.4573 69.9989 20.9888C69.7552 20.21 69.6087 19.4052 69.5625 18.5921C69.4932 17.2059 69.5419 15.812 69.5409 14.4219V13.6032L67.1614 13.525C67.1633 12.7869 67.1633 12.1004 67.1633 11.3292Z" fill="white"/>
<path d="M82.0916 20.6538H88.0788V22.9067C87.5667 23.062 78.8998 23.0898 78.1734 22.9345C77.97 22.5927 78.1543 22.3113 78.3435 22.0333C80.0471 19.5062 81.7525 16.9796 83.4598 14.4535C83.6283 14.2033 83.7949 13.9502 84.0554 13.5591H78.5155V11.45C79.0192 11.275 87.3524 11.242 88.1834 11.4289C88.0845 11.6847 87.9666 11.9332 87.8306 12.1724C86.2623 14.5218 84.6867 16.8676 83.104 19.21C82.8072 19.6472 82.4951 20.0786 82.0916 20.6538Z" fill="white"/>
<path d="M52.8415 21.0291V23.1041C51.6247 23.328 50.3936 23.4445 49.2162 22.8894C48.0947 22.3592 47.7266 21.3334 47.5753 20.2247C47.4993 19.6336 47.4629 19.0383 47.4662 18.4426C47.4567 14.6011 47.4557 10.7591 47.4632 6.91637C47.4632 6.65801 47.4907 6.3982 47.5124 6.04445C48.3694 6.04445 49.1764 6.03391 49.9833 6.05883C50.0816 6.06171 50.229 6.2429 50.26 6.36369C50.294 6.55934 50.3028 6.75838 50.286 6.95615C50.286 10.8867 50.2878 14.8173 50.2914 18.7479C50.2819 19.1659 50.3185 19.5838 50.4005 19.9942C50.427 20.2873 50.5697 20.5587 50.7982 20.7507C51.0267 20.9428 51.3231 21.0402 51.6242 21.0224C52.0016 21.0569 52.3859 21.0291 52.8415 21.0291Z" fill="white"/>
<path d="M90.0199 11.3743H92.5901C92.7612 11.8699 92.8192 21.9355 92.6535 22.9786C91.8004 23.0406 90.9443 23.0529 90.0897 23.0155C89.9251 22.4815 89.8705 12.4844 90.0199 11.3743Z" fill="white"/>
<path d="M91.2898 9.8596C91.0527 9.87838 90.8143 9.84817 90.59 9.77095C90.3657 9.69372 90.1607 9.57122 89.9883 9.41145C89.8158 9.25167 89.6799 9.05821 89.5893 8.8437C89.4987 8.62919 89.4556 8.39846 89.4627 8.16658C89.4608 7.93997 89.5048 7.71522 89.592 7.50517C89.6792 7.29513 89.8079 7.10389 89.9709 6.94238C90.1339 6.78087 90.3279 6.65226 90.5418 6.56388C90.7558 6.4755 90.9855 6.42909 91.2178 6.4273C91.4501 6.42551 91.6806 6.46836 91.8959 6.55343C92.1113 6.63849 92.3073 6.76409 92.4729 6.92306C92.6385 7.08203 92.7703 7.27126 92.861 7.47993C92.9516 7.68861 92.9991 7.91265 93.001 8.13926C93.0169 8.36481 92.9839 8.59109 92.9043 8.8034C92.8246 9.01571 92.7 9.20929 92.5386 9.37156C92.3772 9.53382 92.1826 9.66113 91.9675 9.74522C91.7523 9.8293 91.5214 9.86828 91.2898 9.8596Z" fill="white"/>
</g>
<defs>
<clipPath id="clip0">
<rect width="93" height="29" fill="white"/>
</clipPath>
</defs>
</svg>
