<svg width="14" height="13" viewBox="0 0 14 13" fill="none" xmlns="http://www.w3.org/2000/svg">
<path d="M6.69393 1.73818L7 2.10194L7.30607 1.73818C7.99626 0.917905 9.05492 0.4 10.15 0.4C12.0806 0.4 13.6 1.93082 13.6 3.89646C13.6 5.10559 13.0663 6.23317 12.0483 7.49278C11.0255 8.75825 9.55501 10.1086 7.74454 11.7701L7.74397 11.7707L6.99897 12.4571L6.25578 11.7775L6.25492 11.7767L6.24938 11.7716C4.44175 10.1092 2.97343 8.75873 1.95181 7.49377C0.933731 6.23319 0.4 5.10559 0.4 3.89646C0.4 1.93082 1.91942 0.4 3.85 0.4C4.94508 0.4 6.00374 0.917905 6.69393 1.73818ZM7.28454 11.3683L7.34757 11.3045C9.00343 9.78713 10.4052 8.5019 11.3899 7.33743C12.3725 6.17542 13 5.06613 13 3.89646C13 2.26319 11.7754 1.01689 10.15 1.01689C9.01188 1.01689 7.89795 1.69298 7.39712 2.68883H6.60838C6.10255 1.694 4.98934 1.01689 3.85 1.01689C2.22458 1.01689 1 2.26319 1 3.89646C1 5.06613 1.62745 6.17542 2.61006 7.33744C3.59475 8.5019 4.99657 9.78713 6.65243 11.3045L6.71546 11.3683L7 11.6563L7.28454 11.3683Z" stroke="#98CA3F" stroke-width="0.8"/>
</svg>
