<svg width="10" height="12" viewBox="0 0 10 12" fill="none" xmlns="http://www.w3.org/2000/svg">
<path fill-rule="evenodd" clip-rule="evenodd" d="M7.43825 0.0509956C7.51166 0.0935494 7.56846 0.159738 7.59938 0.238749C7.6303 0.317759 7.63352 0.404922 7.6085 0.485996L6.25775 4.875H8.75C8.82324 4.87497 8.89489 4.89639 8.9561 4.93661C9.01731 4.97683 9.06539 5.0341 9.09443 5.10134C9.12346 5.16858 9.13217 5.24285 9.11948 5.31498C9.10678 5.38712 9.07325 5.45395 9.023 5.50725L3.023 11.8822C2.96495 11.944 2.88769 11.9842 2.80383 11.9964C2.71997 12.0086 2.63445 11.9921 2.5612 11.9495C2.48796 11.9068 2.43131 11.8407 2.40049 11.7617C2.36968 11.6828 2.36651 11.5957 2.3915 11.5147L3.74225 7.125H1.25C1.17676 7.12502 1.10511 7.10361 1.04391 7.06338C0.982698 7.02316 0.934609 6.96589 0.905575 6.89865C0.876541 6.83141 0.867833 6.75714 0.880526 6.68501C0.893219 6.61287 0.926757 6.54604 0.977001 6.49275L6.977 0.117746C7.03499 0.056095 7.11212 0.0158721 7.19586 0.00361702C7.27961 -0.00863802 7.36503 0.00779552 7.43825 0.0502456V0.0509956Z" fill="#F6C443"/>
</svg>
