<svg width="149" height="47" viewBox="0 0 149 47" fill="none" xmlns="http://www.w3.org/2000/svg">
<g clip-path="url(#clip0)">
<path d="M34.9268 18.0801C33.6364 16.8627 32.4963 15.8124 31.3837 14.7318C29.2658 12.6661 27.1651 10.5803 25.0558 8.50604C24.8243 8.27842 24.5834 8.06167 24.3393 7.84493C24.285 7.78421 24.2181 7.73569 24.1431 7.70265C24.0682 7.66961 23.9869 7.65282 23.9048 7.65341C23.8227 7.654 23.7417 7.67195 23.6673 7.70607C23.5928 7.74018 23.5266 7.78965 23.4732 7.85114C23.3158 7.99719 23.1583 8.14324 23.0008 8.29551C18.2405 12.9774 13.4812 17.6593 8.72298 22.3411C8.56551 22.4965 8.40804 22.6394 8.26474 22.801C7.70808 23.4171 7.69706 23.6385 8.29938 24.2507C9.28672 25.2536 10.2977 26.2332 11.3016 27.2183C15.2383 31.0906 19.1751 34.9615 23.1118 38.8308C23.3409 39.0545 23.5842 39.2604 23.9259 39.5672C24.3606 39.1609 24.7794 38.7857 25.1818 38.3903C26.3415 37.2545 27.4856 36.1009 28.6516 34.9721C29.3091 34.3343 29.4287 34.332 30.0752 34.9573C31.3722 36.2117 32.6582 37.4775 33.9332 38.7546C34.6418 39.4655 34.6513 39.5602 33.9663 40.2307C32.2695 41.8993 30.5515 43.5463 28.8437 45.2026C26.673 47.3094 22.0788 47.7087 19.4743 45.5762C18.5027 44.7792 17.5634 43.9378 16.6642 43.0615C13.7773 40.2545 10.9024 37.4332 8.03956 34.5976C6.07118 32.6555 4.08312 30.7211 2.17458 28.7176C0.785467 27.3429 0.00124771 25.4835 -0.0081842 23.5423C-0.0176161 21.601 0.748499 19.7343 2.12419 18.3465C3.57842 16.8068 5.13344 15.3572 6.64201 13.8664C8.78833 11.7404 10.9362 9.6141 13.0857 7.48757C14.8966 5.69225 16.6492 3.82624 18.5444 2.11637C19.9435 0.774646 21.8112 0.0139077 23.7622 -0.00893099C25.7131 -0.0317697 27.5986 0.685033 29.0296 1.99362C30.6247 3.51238 32.1994 5.05057 33.7694 6.58797C35.8024 8.57906 37.7849 10.6276 39.8659 12.5651C41.2325 13.7929 42.1046 15.4656 42.3224 17.2765C42.5402 19.0874 42.089 20.915 41.0516 22.4243C40.5534 23.0851 39.9958 23.7003 39.3856 24.2623C36.3218 27.2713 33.2495 30.2711 30.1689 33.2614C29.9153 33.5085 29.6516 33.7447 29.3437 34.0282C27.6249 32.2523 25.9581 30.5323 24.1771 28.6912C27.6076 25.3025 31.1759 21.7779 34.9268 18.0801Z" fill="#98CA3F"/>
<path d="M56.5642 37.2776H51.8873C51.8542 36.8309 51.8046 36.451 51.8046 36.0704C51.8004 27.7378 51.8004 19.4044 51.8046 11.0702C51.8046 10.8558 51.8046 10.6406 51.8109 10.4262C51.8006 10.3363 51.8113 10.2452 51.8424 10.1601C51.8735 10.0749 51.9241 9.99798 51.9902 9.93523C52.0563 9.87249 52.1361 9.82562 52.2236 9.79827C52.311 9.77092 52.4037 9.76383 52.4944 9.77755C52.6408 9.77755 52.7849 9.77133 52.9313 9.77133C56.6043 9.77133 60.2765 9.73948 63.9495 9.78454C65.9318 9.75045 67.8711 10.3557 69.4729 11.5082C71.0748 12.6608 72.2516 14.2977 72.8246 16.1703C74.0387 19.9179 73.4316 23.3951 70.6428 26.3394C69.826 27.189 68.8451 27.8685 67.7579 28.3381C66.6707 28.8076 65.4992 29.0575 64.3125 29.0732C62.2079 29.1656 60.0962 29.1074 57.9869 29.1159C56.6327 29.1221 56.6311 29.1221 56.6287 30.4987C56.6287 32.2855 56.6287 34.0723 56.6287 35.8637C56.6256 36.2918 56.5909 36.7121 56.5642 37.2776ZM56.6343 24.9092C56.7895 24.9501 56.9473 24.9809 57.1067 25.0017C59.179 25.0102 61.2529 25.032 63.3267 25.0125C64.6139 25.0459 65.8692 24.6153 66.8579 23.8014C67.8465 22.9875 68.5007 21.8461 68.6981 20.5907C69.3334 17.3045 67.2635 13.6836 63.1212 13.832C61.3418 13.8965 59.5577 13.8382 57.7759 13.8467C57.3956 13.8467 57.0161 13.898 56.6358 13.9244L56.6343 24.9092Z" fill="white"/>
<path d="M106.772 34.3581C106.772 35.1568 106.807 35.9391 106.748 36.712C106.712 36.8372 106.646 36.952 106.555 37.0466C106.465 37.1413 106.352 37.2131 106.228 37.2558C105.096 37.5633 103.894 37.5023 102.8 37.0818C102.37 36.9271 101.989 36.6628 101.697 36.3158C101.404 35.9687 101.21 35.5514 101.134 35.1063C101.079 34.8359 101.055 34.5625 100.992 34.1181C100.772 34.3908 100.642 34.543 100.524 34.7C97.4088 38.8663 90.6108 38.4475 87.8669 34.5065C86.5972 32.8055 85.8467 30.7817 85.7039 28.6738C85.561 26.5659 86.0318 24.4616 87.0606 22.6089C87.6355 21.5412 88.4395 20.6101 89.4165 19.8804C90.3936 19.1508 91.5202 18.6402 92.7178 18.3844C95.4472 17.7034 98.3083 17.7269 101.026 18.4527C101.906 18.6656 102.764 18.9748 103.62 19.2708C104.664 19.6312 104.671 19.6468 104.673 20.7227C104.679 24.1222 104.681 27.5213 104.679 30.9198C104.679 31.2787 104.679 31.6353 104.684 31.9934C104.707 33.718 104.905 33.9612 106.772 34.3581ZM100.492 25.5229L100.418 25.519C100.418 24.6598 100.401 23.8006 100.424 22.9438C100.448 22.7304 100.39 22.516 100.262 22.3425C100.134 22.1689 99.9453 22.0487 99.7323 22.0053C98.0696 21.4472 96.2841 21.347 94.568 21.7155C93.5931 21.8871 92.6908 22.3373 91.973 23.0105C91.2552 23.6836 90.7536 24.55 90.5305 25.502C90.0352 27.1646 90.1043 28.9414 90.7273 30.5616C91.1089 31.6036 91.8417 32.4846 92.803 33.0571C93.7643 33.6296 94.8957 33.859 96.0079 33.7067C97.1201 33.5545 98.1456 33.0299 98.9126 32.2207C99.6796 31.4116 100.142 30.367 100.221 29.262C100.412 28.0291 100.409 26.7706 100.492 25.5229Z" fill="white"/>
<path d="M107.606 18.3611H111.417V15.4789C111.417 15.2272 111.413 14.9786 111.417 14.7269C111.443 13.752 111.49 13.7007 112.476 13.6852C113.276 13.672 114.077 13.6681 114.876 13.6852C115.848 13.7046 115.9 13.7582 115.912 14.7502C115.925 15.8883 115.912 17.0264 115.912 18.3114H122.401V21.9517H116.034C115.983 22.4031 115.918 22.7076 115.918 23.0153C115.914 25.4831 115.917 27.9499 115.927 30.4156C115.922 30.7372 115.942 31.0587 115.986 31.3774C116.311 33.5184 117.685 34.5687 119.877 34.3046C120.837 34.1888 121.785 33.9651 122.875 33.7654C122.986 34.7124 123.126 35.6214 123.179 36.5357C123.161 36.6655 123.111 36.7888 123.032 36.8946C122.954 37.0003 122.851 37.0853 122.731 37.1417C120.294 37.8525 117.837 38.2479 115.359 37.3025C114.598 37.0444 113.911 36.612 113.353 36.0407C112.795 35.4694 112.382 34.7757 112.149 34.0164C111.758 32.754 111.524 31.4499 111.45 30.1321C111.339 27.8854 111.417 25.6263 111.415 23.3734V22.0465L107.603 21.9199C107.606 20.7235 107.606 19.6111 107.606 18.3611Z" fill="white"/>
<path d="M131.523 33.4733H141.115V37.1246C140.295 37.3763 126.409 37.4213 125.246 37.1696C124.92 36.6157 125.215 36.1597 125.518 35.7091C128.248 31.6135 130.98 27.5187 133.715 23.4246C133.985 23.0191 134.252 22.6089 134.669 21.975H125.794V18.5568C126.601 18.2733 139.952 18.2197 141.283 18.5227C141.125 18.9373 140.936 19.34 140.718 19.7276C138.205 23.5352 135.681 27.3372 133.145 31.1334C132.67 31.8419 132.17 32.5411 131.523 33.4733Z" fill="white"/>
<path d="M84.66 34.0816V37.4446C82.7105 37.8074 80.7382 37.9962 78.8517 37.0966C77.055 36.2374 76.4652 34.5749 76.2227 32.778C76.1011 31.82 76.0427 30.8552 76.048 29.8897C76.0327 23.6639 76.0312 17.4371 76.0432 11.2093C76.0432 10.7906 76.0873 10.3695 76.122 9.79619C77.4951 9.79619 78.7879 9.7791 80.0808 9.8195C80.2382 9.82416 80.4744 10.1178 80.524 10.3136C80.5786 10.6307 80.5927 10.9533 80.5658 11.2738C80.5658 17.644 80.5687 24.0143 80.5744 30.3845C80.5592 31.062 80.6178 31.7392 80.7492 32.4044C80.7916 32.8794 81.0202 33.3193 81.3864 33.6305C81.7525 33.9417 82.2273 34.0997 82.7097 34.0707C83.3144 34.1267 83.9301 34.0816 84.66 34.0816Z" fill="white"/>
<path d="M144.225 18.4341H148.343C148.617 19.2374 148.71 35.5506 148.445 37.2411C147.078 37.3416 145.706 37.3616 144.337 37.3009C144.074 36.4355 143.986 20.2333 144.225 18.4341Z" fill="white"/>
<path d="M146.26 15.9792C145.88 16.0097 145.498 15.9607 145.139 15.8355C144.78 15.7104 144.451 15.5119 144.175 15.2529C143.898 14.994 143.681 14.6804 143.536 14.3328C143.39 13.9851 143.321 13.6112 143.333 13.2354C143.33 12.8681 143.4 12.5039 143.54 12.1634C143.68 11.823 143.886 11.5131 144.147 11.2513C144.408 10.9896 144.719 10.7811 145.062 10.6379C145.404 10.4947 145.772 10.4194 146.145 10.4165C146.517 10.4136 146.886 10.4831 147.231 10.6209C147.576 10.7588 147.89 10.9624 148.156 11.22C148.421 11.4776 148.632 11.7843 148.777 12.1225C148.922 12.4607 148.999 12.8238 149.002 13.1911C149.027 13.5566 148.974 13.9234 148.847 14.2675C148.719 14.6115 148.519 14.9253 148.261 15.1883C148.002 15.4512 147.69 15.6576 147.346 15.7938C147.001 15.9301 146.631 15.9933 146.26 15.9792Z" fill="white"/>
</g>
<defs>
<clipPath id="clip0">
<rect width="149" height="47" fill="white"/>
</clipPath>
</defs>
</svg>
